<svg width="323" height="68" viewBox="0 0 323 68" fill="none" xmlns="http://www.w3.org/2000/svg">
<path fill-rule="evenodd" clip-rule="evenodd" d="M119.506 49.7031C125.078 49.7031 127.649 47.2392 127.649 42.5789V42.3636C127.649 37.6512 125.026 35.4004 118.863 35.4004H111.042V49.7031H119.506ZM118.006 31.7601C123.632 31.7601 125.773 29.7224 125.773 25.01V24.7969C125.773 20.4585 123.256 18.6905 117.898 18.6905H111.042V31.7601H118.006ZM106.49 15.048H118.006C125.132 15.048 130.328 17.4053 130.328 24.9579V25.1687C130.328 28.6503 128.934 31.7579 124.541 33.2561C130.112 34.5935 132.201 37.4336 132.201 42.4157V42.6288C132.201 49.8617 127.273 53.3433 119.613 53.3433H106.49V15.048ZM137.854 25.3319H142.3V30.3661C144.067 27.2064 146.478 25.01 151.514 24.8491V29.0265C145.889 29.294 142.3 31.062 142.3 37.9731V53.3456H137.854V25.3319ZM171.274 43.5445V40.0607H167.418C161.794 40.0607 157.668 41.4524 157.668 45.5777C157.668 48.4677 159.062 50.2879 162.97 50.2879C167.687 50.2879 171.276 47.8784 171.276 43.5423L171.274 43.5445ZM153.223 45.58C153.223 39.0973 160.079 36.9009 167.257 36.9009H171.276V34.8655C171.276 30.4205 169.561 28.546 165.276 28.546C161.418 28.546 159.277 30.1508 158.846 33.5803H154.401C154.99 27.2041 160.079 24.8491 165.489 24.8491C170.846 24.8491 175.722 27.0455 175.722 34.8655V53.3456H171.276V49.8096C169.185 52.4344 166.67 53.8284 162.544 53.8284C157.346 53.8284 153.223 51.3101 153.223 45.5777V45.58ZM182.183 53.3456V25.3273H186.629V53.3433L182.183 53.3456ZM181.379 16.5463C181.379 14.9392 182.718 13.5996 184.325 13.5996C185.933 13.5996 187.272 14.9392 187.272 16.5463C187.272 18.1556 185.933 19.4929 184.327 19.4929C182.72 19.4929 181.381 18.1556 181.381 16.5463H181.379ZM193.347 25.3296H197.792V29.7768C199.079 27.152 202.185 24.8491 206.792 24.8491C212.576 24.8491 216.647 28.0088 216.647 36.1507V53.3456H212.202V35.8311C212.202 30.9011 210.115 28.7047 205.613 28.7047C201.49 28.7047 197.792 31.3295 197.792 36.366V53.3433H193.347V25.3296ZM223.705 46.328V29.0787H219.686V25.3319H223.705V18.958H228.151V25.3319H234.685V29.0832H228.151V45.9019C228.151 48.6332 229.381 49.9728 231.631 49.9728C233.026 49.9728 234.096 49.7575 235.061 49.3835V53.1325C234.15 53.4544 233.079 53.7219 231.257 53.7219C226.168 53.7219 223.705 50.7208 223.705 46.3325V46.328ZM239.117 25.3296H243.562V30.3661C245.329 27.2041 247.742 25.01 252.777 24.8491V29.0265C247.151 29.294 243.562 31.062 243.562 37.9731V53.3433H239.117V25.3296ZM256.608 43.0595V25.3296H261.054V42.8487C261.054 47.7741 263.145 49.9728 267.534 49.9728C271.499 49.9728 275.251 47.348 275.251 42.3115V25.3341H279.696V53.3433H275.251V48.9007C273.964 51.5232 270.857 53.8261 266.358 53.8261C260.786 53.8261 256.606 50.7729 256.606 43.0595H256.608ZM284.456 44.7209H288.798C289.117 48.0416 290.884 50.1292 295.386 50.1292C299.616 50.1292 301.492 48.6853 301.492 45.6865C301.492 42.7399 299.295 41.7743 294.958 40.9719C287.671 39.6323 285.206 37.5968 285.206 32.7212C285.206 27.526 290.295 24.8491 294.688 24.8491C299.725 24.8491 304.064 26.8845 304.814 32.9365H300.529C299.886 29.8856 298.173 28.5437 294.636 28.5437C291.421 28.5437 289.332 30.1531 289.332 32.5625C289.332 35.0785 290.726 36.0985 295.869 37.0075C301.653 38.0773 305.725 39.3648 305.725 45.3103C305.725 50.3989 302.242 53.8284 295.438 53.8284C288.743 53.8284 284.726 50.4511 284.456 44.7209V44.7209ZM311.505 46.3303V29.0809H307.488V25.3273H311.505V18.958H315.952V25.3319H322.487V29.0832H315.95V45.9019C315.95 48.6332 317.183 49.9728 319.435 49.9728C320.826 49.9728 321.895 49.7575 322.863 49.3835V53.1325C321.95 53.4544 320.878 53.7219 319.056 53.7219C313.968 53.7219 311.505 50.7208 311.505 46.3325V46.3303Z" fill="#141417"/>
<path fill-rule="evenodd" clip-rule="evenodd" d="M40.2095 42.8685C42.5455 41.5095 44.2501 39.2732 44.949 36.6506C45.6479 34.0279 45.2839 31.2333 43.9371 28.8805C42.5847 26.53 40.3609 24.8154 37.7537 24.113C35.1466 23.4106 32.369 23.7777 30.0305 25.1338C28.8701 25.8024 27.8531 26.6963 27.0386 27.7635C26.2241 28.8307 25.6282 30.05 25.2855 31.3507C24.9359 32.6494 24.8458 34.0049 25.0204 35.3389C25.1951 36.6728 25.631 37.9586 26.3029 39.1218C27.6567 41.4709 29.8804 43.1843 32.487 43.8865C35.0937 44.5888 37.8706 44.2227 40.2095 42.8685V42.8685ZM27.5782 20.8614C34.7801 16.6809 44.0261 19.1718 48.1825 26.4172C50.1771 29.9026 50.716 34.042 49.681 37.9269C48.646 41.8118 46.1216 45.1248 42.6619 47.1386C39.1973 49.1487 35.0817 49.6931 31.2186 48.6523C27.3555 47.6116 24.0607 45.0707 22.0575 41.5874C21.0619 39.8642 20.4161 37.9591 20.1577 35.9828C19.8992 34.0064 20.0332 31.9981 20.5519 30.0743C21.0593 28.1473 21.9416 26.3407 23.1477 24.7593C24.3538 23.1779 25.8597 21.853 27.5782 20.8614V20.8614ZM17.6364 44.1541C21.2408 50.4352 19.8493 58.2523 14.7278 62.9471C13.3691 61.9809 12.0807 60.9183 10.8725 59.7675C12.7897 58.2444 14.0987 56.0783 14.5606 53.6646C15.0225 51.2508 14.6066 48.7504 13.3887 46.6197C12.7228 45.4527 11.8336 44.4302 10.7724 43.6113C9.71124 42.7924 8.49922 42.1935 7.20651 41.8492C5.08887 41.2731 2.84232 41.4077 0.807567 42.2325C0.422387 40.6063 0.152519 38.9546 0 37.2898C2.74727 36.4019 5.69081 36.331 8.47717 37.0855C10.3925 37.5963 12.1882 38.4842 13.7604 39.6979C15.3326 40.9116 16.65 42.427 17.6364 44.1564V44.1541ZM51.1003 12.335C51.8429 9.53055 53.375 7.00176 55.5122 5.05294C56.8704 6.01887 58.1588 7.08064 59.3676 8.23025C57.6399 9.58994 56.3995 11.479 55.8339 13.6115C55.4846 14.9098 55.3946 16.2649 55.5693 17.5985C55.7439 18.932 56.1797 20.2174 56.8513 21.3803C57.5169 22.5475 58.4061 23.5703 59.4673 24.3892C60.5285 25.2081 61.7407 25.8069 63.0335 26.1508C65.1779 26.7317 67.4022 26.5824 69.4302 25.7629C69.818 27.3974 70.0872 29.0435 70.2378 30.6918C68.7698 31.1759 67.236 31.4276 65.6912 31.4379C64.3654 31.4371 63.0454 31.2611 61.7652 30.9145C59.8498 30.4043 58.0541 29.5169 56.4819 28.3036C54.9097 27.0902 53.5923 25.5751 52.6059 23.8459C51.6102 22.1231 50.9644 20.2184 50.706 18.2424C50.4475 16.2665 50.5815 14.2585 51.1003 12.335V12.335ZM35.12 54.3059C42.3288 54.3059 48.365 59.4231 49.8478 66.2323C48.3194 66.9417 46.759 67.5271 45.1827 68C44.8282 65.5678 43.617 63.3449 41.7698 61.7363C39.9227 60.1278 37.5627 59.2408 35.12 59.2371C32.6788 59.2411 30.3201 60.1274 28.4736 61.7345C26.6271 63.3416 25.4156 65.5626 25.0597 67.9931C23.4653 67.5165 21.9064 66.9274 20.3945 66.23C21.8773 59.4208 27.9112 54.3059 35.12 54.3059V54.3059ZM35.12 13.6941C27.9112 13.6941 21.875 8.57461 20.3922 1.76772C21.9206 1.05834 23.481 0.472924 25.0574 0C25.4124 2.43174 26.6238 4.65417 28.4709 6.26224C30.3179 7.8703 32.6777 8.75694 35.12 8.76057C40.2301 8.76057 44.4641 4.94963 45.1804 0.00688724C46.7759 0.482033 48.3357 1.07124 49.8478 1.77002C48.365 8.57691 42.3288 13.6918 35.12 13.6918V13.6941ZM61.7652 37.0878C64.5481 36.3323 67.4885 36.4016 70.2332 37.2875C70.0777 38.9529 69.8063 40.6053 69.4211 42.2325C67.3893 41.4124 65.1478 41.2778 63.0335 41.8492C61.7408 42.1934 60.5287 42.7923 59.4675 43.6111C58.4063 44.43 57.5171 45.4526 56.8513 46.6197C56.1799 47.7827 55.7443 49.0681 55.5696 50.4016C55.395 51.7351 55.4848 53.0902 55.8339 54.3885C56.3982 56.5198 57.6371 58.408 59.363 59.7675C58.1676 60.9038 56.8833 61.9691 55.5077 62.9448C53.3715 60.9973 51.8402 58.4701 51.098 55.6672C50.0554 51.753 50.5893 47.6643 52.6036 44.1541C54.618 40.6439 57.8733 38.1346 61.7629 37.0855L61.7652 37.0878ZM8.47489 30.9145C7.19383 31.2612 5.87311 31.4371 4.54655 31.4379C3.00418 31.4279 1.47271 31.177 0.00684379 30.6941C0.16197 29.0343 0.43344 27.3883 0.818973 25.7698C2.84245 26.5824 5.06212 26.7294 7.20651 26.1508C8.49932 25.8067 9.71144 25.2079 10.7726 24.389C11.8339 23.5701 12.723 22.5475 13.3887 21.3803C14.0604 20.2178 14.4962 18.9328 14.6709 17.5996C14.8455 16.2665 14.7556 14.9117 14.4062 13.6138C13.8414 11.4821 12.6016 9.59383 10.8748 8.23484C12.0836 7.08462 13.3719 6.02209 14.7301 5.05523C16.8664 7.00348 18.3977 9.53149 19.1398 12.335C19.6578 14.2586 19.7914 16.2664 19.533 18.2423C19.2745 20.2182 18.6291 22.1228 17.6342 23.8459C16.6476 25.575 15.3301 27.09 13.7579 28.3033C12.1857 29.5166 10.3901 30.4041 8.47489 30.9145Z" fill="#141417"/>
</svg>