<svg width="78" height="30" viewBox="0 0 78 30" fill="none" xmlns="http://www.w3.org/2000/svg">
  <path d="M74.7508 29.3541C76.0721 29.3541 77.1433 28.283 77.1433 26.9617C77.1433 25.6403 76.0721 24.5691 74.7508 24.5691C73.4295 24.5691 72.3583 25.6403 72.3583 26.9617C72.3583 28.283 73.4295 29.3541 74.7508 29.3541Z" fill="black"/>
  <path d="M59.3223 16.3181H58.8315C57.7886 16.3181 56.9297 17.1463 56.8683 18.2199C56.8683 18.3118 56.8683 18.3732 56.8683 18.4652C56.8683 19.5081 57.7272 20.3669 58.7701 20.3669H71.2847C72.0515 20.3669 72.6651 19.7535 72.6651 18.9867C72.6651 13.036 68.3401 7.975 61.7761 7.975C55.7028 7.975 50.8871 12.6987 50.8871 18.6799C50.8871 24.8145 55.6414 29.4155 62.2055 29.4155C64.4446 29.4155 66.3771 28.9554 68.0027 28.0965C69.1683 27.4831 70.1499 26.5935 70.9167 25.5507C71.4075 24.9065 71.7755 24.1704 72.0822 23.4343C72.3583 22.7595 71.8368 22.0233 71.1314 22.0233H68.2787C67.9413 22.0233 67.604 22.1767 67.3893 22.422C66.1317 23.9557 64.6287 24.6612 62.2055 24.6612C59.5369 24.6612 57.6045 23.4956 56.5617 21.5019C56.531 21.4405 56.5003 21.3791 56.4696 21.3485C56.0402 20.5203 55.7948 19.6001 55.7948 18.5879C55.7948 17.7904 55.9175 17.0542 56.1935 16.3794C56.2549 16.2567 56.3163 16.134 56.3776 16.0113C56.3776 15.9807 56.4082 15.95 56.4082 15.9194C57.4205 14.0483 59.4449 12.6987 61.7761 12.6987C62.1135 12.6987 62.4202 12.7293 62.7269 12.76C62.7576 12.76 62.819 12.76 62.8497 12.7907C64.1992 12.9747 65.2728 13.5575 66.101 14.5083C66.5918 15.0298 66.9905 15.674 67.2665 16.3487H59.3223V16.3181Z" fill="black"/>
  <path d="M21.4102 1.56433C21.2876 1.2576 21.1035 0.98154 20.8888 0.736153C20.6741 0.490767 20.398 0.306729 20.0913 0.184035C19.7846 0.0613434 19.4779 0 19.1097 0C18.7417 0 18.435 0.0613434 18.1282 0.184035C17.8215 0.306729 17.5761 0.490767 17.3614 0.736153C17.1467 0.98154 16.9627 1.22692 16.8399 1.56433C16.7173 1.87106 16.6559 2.20846 16.6559 2.57654V7.79962C16.6559 8.5908 15.7678 9.08425 15.042 8.76926C14.6696 8.60762 14.2873 8.46556 13.8953 8.34308C13.3609 8.17131 12.8147 8.04704 12.2565 7.97027C11.6964 7.89324 11.2268 8.35153 11.2268 8.91687V11.8371C11.2268 12.3709 11.6509 12.7991 12.1688 12.9284C12.476 13.0051 12.7754 13.1126 13.0671 13.2507C13.7727 13.5575 14.3861 13.9869 14.9382 14.5083C15.4904 15.0298 15.8891 15.6433 16.1958 16.3794C16.5026 17.0849 16.6559 17.8517 16.6559 18.6799C16.6559 19.4775 16.5026 20.2443 16.1958 20.9497C15.8891 21.6552 15.4597 22.2993 14.9382 22.8208C14.4168 23.3422 13.7727 23.7717 13.0671 24.0784C12.3617 24.3851 11.5948 24.5385 10.7667 24.5385C9.93849 24.5385 9.20238 24.3851 8.46621 24.0784C7.76072 23.7717 7.1166 23.3422 6.59515 22.8208C6.07371 22.2687 5.64428 21.6552 5.33755 20.9497C5.21121 20.6338 5.10927 20.318 5.0359 19.9938C4.9179 19.4723 4.48718 19.048 3.95255 19.048H1.02342C0.462241 19.048 0.00581021 19.5109 0.0717887 20.0682C0.187883 21.0488 0.440156 21.991 0.828608 22.8821C1.41139 24.2011 2.17822 25.3359 3.12909 26.3175C4.11063 27.2991 5.24554 28.0659 6.53381 28.6487C7.85275 29.2315 9.23306 29.5075 10.7361 29.5075C12.2083 29.5075 13.6193 29.2315 14.9075 28.6487C16.1958 28.0965 17.3614 27.3297 18.3123 26.3482C19.2938 25.3973 20.0607 24.2318 20.6434 22.9435C21.2262 21.6245 21.5023 20.2443 21.533 18.8026V2.68361C21.533 2.63275 21.5373 2.58201 21.5432 2.5315C21.5862 2.16546 21.5251 1.85145 21.4102 1.56433Z" fill="black"/>
  <path d="M24.1095 3.06732C24.1095 2.69925 24.1708 2.33116 24.3242 1.99377C24.4776 1.65636 24.6616 1.3803 24.9069 1.13492C25.1523 0.889526 25.4284 0.705488 25.7658 0.552122C26.1033 0.398757 26.4406 0.337411 26.8087 0.337411C27.1768 0.337411 27.5142 0.398757 27.8516 0.552122C28.189 0.705488 28.465 0.889526 28.7104 1.13492C28.9558 1.3803 29.1705 1.65636 29.2932 1.99377C29.4466 2.33116 29.5079 2.66857 29.5079 3.06732C29.5079 3.43539 29.4466 3.7728 29.2932 4.11021C29.1399 4.44761 28.9558 4.72366 28.7104 4.96905C28.465 5.21443 28.1583 5.39847 27.8516 5.55184C27.5142 5.70521 27.1768 5.76655 26.8087 5.76655C26.4406 5.76655 26.1033 5.70521 25.7658 5.55184C25.4284 5.39847 25.1523 5.21443 24.9069 4.96905C24.6616 4.72366 24.4776 4.44761 24.3242 4.11021C24.2015 3.7728 24.1095 3.43539 24.1095 3.06732ZM29.2932 26.6856C29.2932 27.0231 29.2319 27.3297 29.1092 27.6365C28.9865 27.9432 28.8025 28.1886 28.5878 28.4033C28.3731 28.618 28.1277 28.8021 27.821 28.9247C27.5142 29.0475 27.2074 29.1087 26.8701 29.1087C26.5327 29.1087 26.2259 29.0475 25.9192 28.9247C25.6125 28.8021 25.3671 28.618 25.1217 28.4033C24.9069 28.1886 24.7229 27.9125 24.6003 27.6365C24.4776 27.3297 24.4162 27.0231 24.4162 26.6856V10.5209C24.4162 10.1835 24.4776 9.87677 24.6309 9.57C24.7536 9.26331 24.9376 9.01791 25.183 8.8032C25.3977 8.58849 25.6738 8.40444 25.9805 8.28175C26.2873 8.15906 26.594 8.09771 26.9621 8.09771C27.2995 8.09771 27.6369 8.15906 27.9129 8.28175C28.189 8.40444 28.465 8.58849 28.6797 8.8032C28.8945 9.01791 29.0785 9.29391 29.2012 9.57C29.3239 9.87677 29.3853 10.1835 29.3853 10.5209V26.6856H29.2932Z" fill="black"/>
  <path d="M41.0717 21.3485L46.3782 9.66206C46.5929 9.20194 46.8996 8.83389 47.2983 8.55781C47.6971 8.28175 48.1265 8.15906 48.5866 8.15906C48.9547 8.15906 49.2921 8.2204 49.5988 8.37376C49.9056 8.49645 50.1816 8.71114 50.3963 8.92586C50.611 9.17126 50.7951 9.44734 50.8871 9.72334C51.0098 10.0301 51.0711 10.3369 51.0711 10.6743C51.0711 11.0116 51.0098 11.3184 50.8564 11.6558L43.3108 27.6978C43.0654 28.1886 42.7281 28.5567 42.3293 28.8021C41.8999 29.0475 41.5318 29.1701 41.1638 29.2008C40.5809 29.2008 40.0902 29.0475 39.6915 28.7714C39.2927 28.4953 38.9859 28.1272 38.7712 27.6978L31.2256 11.6251C31.0723 11.3184 31.0109 10.9809 31.0109 10.6436C31.0109 10.3062 31.0723 9.99943 31.1949 9.69274C31.3177 9.38597 31.471 9.14057 31.6857 8.89517C31.9005 8.64986 32.1765 8.46579 32.4525 8.34309C32.606 8.28174 32.79 8.2204 32.9433 8.15906C33.0967 8.12839 33.2807 8.09771 33.4341 8.09771C33.9249 8.09771 34.3543 8.22039 34.753 8.49645C35.1518 8.77251 35.4585 9.14057 35.6733 9.60069L41.0717 21.3485Z" fill="black"/>
  <path d="M0.0966542 17.1181C0.0167505 17.682 0.475838 18.1583 1.04536 18.1583H3.92745C4.44721 18.1583 4.87139 17.7566 4.99379 17.2515C5.52181 15.0724 7.24167 13.356 9.43857 12.8617C9.95375 12.7457 10.3679 12.3178 10.3679 11.7897V8.92179C10.3679 8.35452 9.89529 7.89627 9.33306 7.97174C4.55368 8.61332 0.769878 12.3671 0.0966542 17.1181Z" fill="black"/>
</svg>