<svg width="218" height="50" viewBox="0 0 218 50" fill="none" xmlns="http://www.w3.org/2000/svg">
<path fill-rule="evenodd" clip-rule="evenodd" d="M43.2447 49.9993H46.2549C46.9524 49.9993 47.5397 49.4119 47.5765 48.7144V15.9322C47.5765 12.7017 44.97 10.0953 41.7395 10.0953H37.885C37.1875 10.0953 36.6001 9.50792 36.6001 8.81043V5.83693C36.6001 2.60642 33.9937 0 30.7632 0H5.83693C2.60642 0 0 2.60642 0 5.83693V38.766C0 41.9598 2.60642 44.5662 5.83693 44.6029H34.7279C34.9848 44.6029 35.2418 44.6764 35.4621 44.8232L42.5104 49.7791C42.7307 49.9259 42.9877 49.9993 43.2447 49.9993ZM36.233 39.9407H5.91034C5.17614 39.9407 4.62549 39.3901 4.62549 38.6558V5.91034C4.62549 5.21285 5.21285 4.62549 5.91034 4.62549H30.6898C31.3873 4.62549 31.9746 5.21285 31.9746 5.91034V8.81043C31.9746 9.50792 31.3873 10.0953 30.6898 10.0953H12.2245C11.527 10.0953 10.9396 10.6827 10.9396 11.3802V33.2228C10.9396 33.9203 11.527 34.5076 12.2245 34.5076H35.2785C35.976 34.5076 36.5634 33.9203 36.5634 33.2228V16.0056C36.5634 15.3081 37.1507 14.7208 37.8482 14.7208H41.6294C42.3269 14.7208 42.9143 15.3081 42.9143 16.0056V42.8041C42.9143 43.4649 42.18 43.832 41.6661 43.4649L36.9672 40.161C36.747 40.0141 36.49 39.9407 36.233 39.9407ZM31.3138 29.8454H16.1892C15.8588 29.8454 15.5651 29.5885 15.5651 29.2214V15.3449C15.5651 15.0145 15.8221 14.7208 16.1892 14.7208H31.3138C31.6442 14.7208 31.9379 14.9777 31.9379 15.3449V29.2214C31.9379 29.5517 31.6809 29.8454 31.3138 29.8454ZM164.507 6.98024C166.435 6.98024 167.998 5.41768 167.998 3.49013C167.998 1.56259 166.435 0 164.507 0C162.58 0 161.017 1.56259 161.017 3.49013C161.017 5.41768 162.58 6.98024 164.507 6.98024ZM124.692 12.0827V10.1438H119.07V34.3161H124.692V17.8026L131.253 15.0881V9.43279H131.188L124.692 12.0827ZM102.907 10.122C99.2549 10.122 96.2816 11.3177 94.0195 13.7414C92.9857 14.8725 92.1779 16.1651 91.596 17.6839C91.0468 19.1704 90.7556 20.7539 90.7556 22.4021C90.7556 25.7953 91.7253 28.6068 93.6969 30.7719C95.8617 33.1633 98.835 34.3267 102.616 34.3267C106.3 34.3267 109.241 33.131 111.471 30.7073C113.571 28.4129 114.637 25.5368 114.637 22.0466C114.637 18.5565 113.604 15.745 111.567 13.5474C109.402 11.253 106.526 10.122 102.907 10.122ZM107.302 27.3141C106.235 28.6391 104.749 29.3177 102.874 29.3177C100.871 29.3177 99.2229 28.6391 97.9945 27.2818C97.4127 26.6678 96.9608 25.8922 96.6375 25.0197C96.3143 24.1471 96.1523 23.2423 96.1523 22.2728C96.1523 20.3338 96.6695 18.718 97.7359 17.3607C98.8997 15.9066 100.483 15.1633 102.519 15.1633C104.522 15.1633 106.106 15.8419 107.237 17.2315C108.303 18.5241 108.853 20.2046 108.853 22.3051C108.885 24.341 108.368 26.0215 107.302 27.3141ZM161.659 10.1477H167.25V34.3525H161.659V10.1477ZM76.347 10.122C73.1478 10.122 70.5304 11.0592 68.4942 12.9335C66.5876 14.7108 65.6181 16.9406 65.6181 19.6229C65.6181 22.0142 66.4583 23.9856 68.139 25.569C66.6845 26.7324 65.9736 28.122 65.9736 29.7702C65.9736 30.7719 66.1029 31.6444 66.3291 32.3877C66.5553 33.1633 67.0077 33.8096 67.7187 34.3913C65.198 35.7809 63.97 38.043 64.0669 41.1453C64.1316 43.8276 65.295 45.9605 67.5571 47.5762C69.8192 49.1921 72.8245 50 76.5083 50C80.1928 50 82.9395 49.289 84.8137 47.8671C86.6879 46.4452 87.6251 44.4093 87.6251 41.7271C87.6251 39.0772 86.8819 37.0089 85.3956 35.5547C84.5878 34.7791 83.5533 34.1651 82.293 33.6157C81.0006 33.0987 79.2557 32.6463 76.9936 32.2908C74.7314 31.9353 73.1151 31.5475 72.146 31.0628C71.6935 30.8689 71.4029 30.6427 71.2736 30.4165C71.1443 30.1903 71.0796 29.8671 71.0796 29.447C71.0796 29.0269 71.3702 28.4451 71.9194 27.7019C73.1798 28.122 74.5695 28.3482 76.0565 28.3482C79.0937 28.3482 81.5825 27.4434 83.5533 25.6013C84.4258 24.7611 85.105 23.7594 85.5895 22.6283C86.0741 21.4972 86.3007 20.2369 86.3007 18.8473C86.3007 17.4577 85.9775 16.1328 85.3309 14.9047C85.3309 14.9047 85.3309 14.8725 85.2983 14.8725H87.6577V10.122H76.347ZM72.4366 36.2656L73.6004 36.4595C76.8643 36.9443 79.191 37.5906 80.5161 38.4631C81.7118 39.2064 82.293 40.2082 82.293 41.4362C82.293 44.0215 80.4514 45.2818 76.7669 45.2818C74.6021 45.2818 72.8572 44.8294 71.4995 43.9569C70.8857 43.569 70.4011 43.0844 70.0779 42.535C69.7219 41.9856 69.5606 41.3716 69.5606 40.6283C69.5606 39.885 69.7866 39.1095 70.2391 38.3016C70.7244 37.4613 71.4675 36.815 72.4366 36.2656ZM79.4816 22.4021C78.5765 23.21 77.5101 23.6301 76.3151 23.6301C74.6988 23.6301 73.4064 23.1776 72.4046 22.2728C71.9521 21.885 71.6288 21.4003 71.3702 20.9155C71.1443 20.3985 71.015 19.8814 71.015 19.332C71.015 18.7827 71.1116 18.2333 71.3382 17.6839C72.0487 15.8419 73.6323 14.937 76.1211 14.937C77.6074 14.937 78.8031 15.3248 79.6436 16.1004C80.4834 16.8761 80.936 17.9101 80.936 19.1704C80.9033 20.3985 80.4188 21.4972 79.4816 22.4021ZM191.938 15.3895C192.358 16.4882 192.584 17.7808 192.584 19.1704V34.262H187.091V33.131C185.443 33.8743 183.924 34.262 182.534 34.262C180.789 34.262 179.335 34.1005 178.107 33.7773C176.879 33.4542 175.845 32.9694 175.004 32.3554C173.292 31.0628 172.419 29.2208 172.419 26.8294C172.419 24.6965 173.453 22.8868 175.586 21.4649C177.88 19.9137 181.015 19.1381 184.958 19.1381L185.863 19.1704C185.956 19.1704 186.049 19.1779 186.146 19.1857C186.25 19.1941 186.359 19.2028 186.476 19.2028C186.585 19.2183 186.686 19.2263 186.783 19.2341C186.889 19.2425 186.99 19.2506 187.091 19.2674C186.962 16.8761 185.927 15.4541 183.988 15.0663C183.374 14.937 182.663 14.8725 181.952 14.8725C181.209 14.8725 180.498 14.937 179.819 15.0663C179.109 15.1956 178.43 15.3895 177.784 15.5834C176.361 16.0358 175.295 16.5852 174.681 17.1669L174.617 17.1345L173.938 12.1902C176.555 10.8006 179.464 10.122 182.599 10.122C187.478 10.122 190.581 11.867 191.938 15.3895ZM187.091 28.5421V25.4398V23.3392C186.67 23.2746 186.25 23.2423 185.831 23.2423H184.925C181.63 23.2423 179.529 23.9856 178.624 25.4398C178.366 25.8599 178.236 26.3123 178.236 26.7971C178.236 27.2818 178.333 27.7019 178.494 28.0574C178.688 28.4129 178.979 28.736 179.367 28.9622C180.143 29.4146 181.306 29.6409 182.825 29.6409C184.344 29.6409 185.766 29.2531 187.091 28.5421ZM213.238 20.8186C214.175 21.271 214.951 21.8204 215.533 22.4667C216.599 23.6301 217.149 25.1812 217.149 27.1848C217.149 29.2854 216.308 30.9981 214.628 32.3231C212.883 33.7127 210.427 34.3913 207.26 34.3913C203.446 34.3913 200.474 33.745 198.373 32.4847V26.5385C198.373 26.5062 198.502 26.6355 198.728 26.894C198.955 27.1525 199.407 27.4434 200.021 27.8311C200.635 28.2189 201.378 28.5421 202.186 28.833C203.964 29.447 205.806 29.7378 207.745 29.7378C210.33 29.7378 211.623 28.8653 211.623 27.1525C211.623 26.6032 211.364 26.1831 210.879 25.9245C210.007 25.4721 208.714 25.1166 207.002 24.8904C205.289 24.6319 203.899 24.3087 202.801 23.8563C201.702 23.4039 200.796 22.8545 200.118 22.2405C198.858 21.0448 198.212 19.4936 198.212 17.587C198.212 15.2602 199.116 13.4182 200.894 12.0932C202.671 10.7683 205.127 10.122 208.262 10.122C211.364 10.122 214.014 10.9945 216.211 12.7719C216.115 13.1597 216.018 13.5474 215.888 13.903C215.533 14.9047 215.274 15.6157 215.113 16.0358L214.596 17.3607C214.563 17.49 214.531 17.5546 214.531 17.5546C214.499 17.5546 214.369 17.3931 214.175 17.0699C213.238 15.9712 211.752 15.2602 209.78 14.9047C209.166 14.7755 208.553 14.7108 207.906 14.7108C205.191 14.7108 203.834 15.5188 203.834 17.1669C203.834 17.7163 204.093 18.1687 204.675 18.4595C205.741 19.0412 207.196 19.4613 209.037 19.7199C210.879 20.0107 212.269 20.3662 213.238 20.8186ZM145.209 10.122C142.01 10.122 139.392 11.0592 137.357 12.9335C135.45 14.7108 134.481 16.9406 134.481 19.6229C134.481 22.0142 135.32 23.9856 137.001 25.569C135.547 26.7324 134.836 28.122 134.836 29.7702C134.836 30.7719 134.965 31.6444 135.191 32.3877C135.418 33.1633 135.87 33.8096 136.581 34.3913C134.06 35.7809 132.832 38.043 132.929 41.1453C132.994 43.8276 134.157 45.9605 136.42 47.5762C138.682 49.1921 141.687 50 145.371 50C149.055 50 151.802 49.289 153.676 47.8671C155.55 46.4452 156.487 44.4093 156.487 41.7271C156.487 39.0772 155.744 37.0089 154.258 35.5547C153.45 34.7791 152.416 34.1651 151.155 33.6157C149.863 33.0987 148.118 32.6463 145.856 32.2908C143.594 31.9353 141.978 31.5475 141.008 31.0628C140.556 30.8689 140.265 30.6427 140.136 30.4165C140.007 30.1903 139.942 29.8671 139.942 29.447C139.942 29.0269 140.233 28.4451 140.782 27.7019C142.042 28.122 143.432 28.3482 144.918 28.3482C147.956 28.3482 150.444 27.4434 152.416 25.6013C153.288 24.7611 153.967 23.7594 154.452 22.6283C154.936 21.4972 155.162 20.2369 155.162 18.8473C155.162 17.4577 154.84 16.1328 154.193 14.9047C154.193 14.9047 154.193 14.8725 154.161 14.8725H156.52V10.122H145.209ZM141.299 36.2656L142.463 36.4595C145.727 36.9443 148.053 37.5906 149.378 38.4631C150.574 39.2064 151.155 40.2082 151.155 41.4362C151.155 44.0215 149.314 45.2818 145.629 45.2818C143.465 45.2818 141.719 44.8294 140.362 43.9569C139.748 43.569 139.264 43.0844 138.94 42.535C138.584 41.9856 138.423 41.3716 138.423 40.6283C138.423 39.885 138.649 39.1095 139.102 38.3016C139.586 37.4613 140.33 36.815 141.299 36.2656ZM148.344 22.4021C147.439 23.21 146.373 23.6301 145.177 23.6301C143.561 23.6301 142.269 23.1776 141.267 22.2728C140.814 21.885 140.491 21.4003 140.233 20.9155C140.007 20.3985 139.877 19.8814 139.877 19.332C139.877 18.7827 139.974 18.2333 140.201 17.6839C140.911 15.8419 142.495 14.937 144.983 14.937C146.47 14.937 147.666 15.3248 148.505 16.1004C149.346 16.8761 149.798 17.9101 149.798 19.1704C149.766 20.3985 149.281 21.4972 148.344 22.4021Z" fill="#1D1D1D"/>
</svg>
