<svg width="350" height="38" viewBox="0 0 350 38" fill="none" xmlns="http://www.w3.org/2000/svg">
<path d="M-7.59245e-07 19.7506C-3.81731e-07 28.3871 7.09658 35.6583 15.7905 37.1201L39.024 37.1201C40.7682 37.1201 42.1821 35.7062 42.1821 33.962V33.962C42.1821 32.2179 40.7746 30.8039 39.0304 30.8039C33.8341 30.8039 23.5487 30.8039 18.5618 30.8039C11.7276 30.8039 6.31618 26.2105 6.31618 19.7506C6.31618 13.2907 11.7276 7.11825 18.5618 7.11825C25.3961 7.11825 25.2647 7.11825 25.2647 7.11825C26.5623 7.11825 26.2623 8.46498 26.1484 9.75751L25.7747 13.9958C25.5629 16.3981 28.8033 17.3554 29.931 15.2236L35.4719 4.74873C36.2507 3.27645 35.1834 0.802068 33.5178 0.802068L18.5618 0.802069C8.31042 0.80207 -1.1828e-06 10.0608 -7.59245e-07 19.7506Z" fill="#1D1D1D"/>
<path d="M84.3652 18.1713C84.3652 9.53476 77.2687 2.2636 68.5748 0.801757L45.3412 0.801761C43.5971 0.801762 42.1831 2.21569 42.1831 3.95985V3.95985C42.1831 5.70401 43.5906 7.11794 45.3348 7.11794C50.5311 7.11794 60.8166 7.11794 65.8034 7.11794C72.6377 7.11794 78.0491 11.7114 78.0491 18.1713C78.0491 24.6311 72.6377 30.8036 65.8034 30.8036C58.9691 30.8036 59.1005 30.8036 59.1005 30.8036C57.803 30.8036 58.1029 29.4569 58.2169 28.1644L58.5905 23.9261C58.8023 21.5237 55.562 20.5665 54.4343 22.6983L48.8933 33.1731C48.1145 34.6454 49.1818 37.1198 50.8474 37.1198L65.8034 37.1198C76.0548 37.1198 84.3652 27.8611 84.3652 18.1713Z" fill="#1D1D1D"/>
<path d="M113.266 36.3307V0H120.188V15.361C120.997 13.744 122.108 12.5482 123.523 11.7734C124.938 10.9649 126.538 10.5607 128.323 10.5607C130.951 10.5607 133.124 11.3354 134.842 12.885C136.56 14.4009 137.419 16.6916 137.419 19.757V36.3307H130.496V21.7782C130.496 19.5886 130.075 18.0896 129.233 17.2811C128.391 16.4389 127.313 16.0178 125.999 16.0178C125.022 16.0178 124.096 16.2536 123.22 16.7253C122.344 17.1632 121.62 17.9043 121.047 18.9486C120.474 19.9591 120.188 21.3066 120.188 22.9909V36.3307H113.266Z" fill="#1D1D1D"/>
<path d="M156.071 10.5607C158.598 10.5607 160.838 11.0828 162.792 12.1271C164.745 13.1713 166.261 14.6704 167.339 16.6242C168.451 18.578 169.007 20.936 169.007 23.6983C169.007 26.4606 168.451 28.8186 167.339 30.7724C166.261 32.7263 164.745 34.2253 162.792 35.2696C160.838 36.3138 158.598 36.836 156.071 36.836C153.511 36.836 151.254 36.3138 149.3 35.2696C147.38 34.2253 145.864 32.7263 144.753 30.7724C143.675 28.8186 143.136 26.4606 143.136 23.6983C143.136 20.936 143.675 18.578 144.753 16.6242C145.864 14.6704 147.38 13.1713 149.3 12.1271C151.254 11.0828 153.511 10.5607 156.071 10.5607ZM156.071 15.7147C154.185 15.7147 152.703 16.3884 151.625 17.7358C150.58 19.0496 150.058 21.0371 150.058 23.6983C150.058 26.3595 150.58 28.3639 151.625 29.7113C152.703 31.0251 154.185 31.682 156.071 31.682C157.924 31.682 159.372 31.0251 160.417 29.7113C161.495 28.3639 162.034 26.3595 162.034 23.6983C162.034 21.0371 161.495 19.0496 160.417 17.7358C159.372 16.3884 157.924 15.7147 156.071 15.7147Z" fill="#1D1D1D"/>
<path d="M186.32 10.5607C188.846 10.5607 191.086 11.0828 193.04 12.1271C194.994 13.1713 196.51 14.6704 197.588 16.6242C198.699 18.578 199.255 20.936 199.255 23.6983C199.255 26.4606 198.699 28.8186 197.588 30.7724C196.51 32.7263 194.994 34.2253 193.04 35.2696C191.086 36.3138 188.846 36.836 186.32 36.836C183.76 36.836 181.503 36.3138 179.549 35.2696C177.629 34.2253 176.113 32.7263 175.001 30.7724C173.923 28.8186 173.384 26.4606 173.384 23.6983C173.384 20.936 173.923 18.578 175.001 16.6242C176.113 14.6704 177.629 13.1713 179.549 12.1271C181.503 11.0828 183.76 10.5607 186.32 10.5607ZM186.32 15.7147C184.433 15.7147 182.951 16.3884 181.873 17.7358C180.829 19.0496 180.307 21.0371 180.307 23.6983C180.307 26.3595 180.829 28.3639 181.873 29.7113C182.951 31.0251 184.433 31.682 186.32 31.682C188.173 31.682 189.621 31.0251 190.665 29.7113C191.743 28.3639 192.282 26.3595 192.282 23.6983C192.282 21.0371 191.743 19.0496 190.665 17.7358C189.621 16.3884 188.173 15.7147 186.32 15.7147Z" fill="#1D1D1D"/>
<path d="M211.97 0V22.5867L222.885 11.066H230.767L221.268 20.9697L231.373 36.3307H223.541L216.568 25.1637L211.97 30.065V36.3307H205.048V0H211.97Z" fill="#1D1D1D"/>
<path d="M243.761 36.836C241.672 36.836 239.803 36.3138 238.152 35.2696C236.535 34.2253 235.255 32.7431 234.312 30.823C233.402 28.8692 232.947 26.5111 232.947 23.7488C232.947 20.9529 233.436 18.578 234.413 16.6242C235.39 14.6367 236.703 13.1377 238.354 12.1271C240.038 11.0828 241.925 10.5607 244.013 10.5607C245.832 10.5607 247.399 10.9986 248.713 11.8744C250.026 12.7503 251.02 13.9124 251.694 15.361V0H258.616V36.3307H252.401L252.098 31.4293C251.391 33.1136 250.296 34.4443 248.814 35.4212C247.331 36.3644 245.647 36.836 243.761 36.836ZM245.782 31.5304C247.567 31.5304 248.999 30.8398 250.077 29.4587C251.155 28.0439 251.694 26.0564 251.694 23.4962C251.694 21.0708 251.155 19.2012 250.077 17.8874C249.033 16.54 247.635 15.8663 245.883 15.8663C243.997 15.8663 242.514 16.54 241.436 17.8874C240.392 19.2012 239.87 21.1382 239.87 23.6983C239.87 26.2585 240.392 28.2123 241.436 29.5597C242.481 30.8735 243.929 31.5304 245.782 31.5304Z" fill="#1D1D1D"/>
<path d="M277.613 36.836C273.638 36.836 270.455 35.6906 268.063 33.4C265.671 31.0756 264.475 27.8417 264.475 23.6983C264.475 20.936 265.014 18.578 266.092 16.6242C267.17 14.6704 268.669 13.1713 270.589 12.1271C272.543 11.0828 274.767 10.5607 277.259 10.5607C279.82 10.5607 281.992 11.0828 283.778 12.1271C285.563 13.1377 286.927 14.5356 287.871 16.321C288.814 18.0727 289.285 20.077 289.285 22.334C289.285 23.0078 289.269 23.6478 289.235 24.2541C289.201 24.8605 289.151 25.3995 289.083 25.8711H271.246C271.516 27.8249 272.19 29.2902 273.268 30.2672C274.379 31.2104 275.811 31.682 277.563 31.682C279.045 31.682 280.241 31.3956 281.15 30.823C282.06 30.2503 282.767 29.4587 283.272 28.4481L288.78 30.5703C287.972 32.5578 286.557 34.1074 284.536 35.219C282.514 36.297 280.207 36.836 277.613 36.836ZM277.209 15.6641C273.941 15.6641 271.971 17.4664 271.297 21.0708H282.666C282.464 19.3191 281.891 17.9885 280.948 17.079C280.039 16.1357 278.792 15.6641 277.209 15.6641Z" fill="#1D1D1D"/>
<path d="M306.622 10.5607C309.991 10.5607 312.601 11.2849 314.454 12.7334C316.341 14.1819 317.587 15.9336 318.193 17.9885L311.726 20.3128C311.052 17.2474 309.384 15.7147 306.723 15.7147C304.803 15.7147 303.304 16.3884 302.226 17.7358C301.182 19.0833 300.66 21.0876 300.66 23.7488C300.66 26.4438 301.199 28.4481 302.277 29.7619C303.388 31.0419 304.887 31.682 306.774 31.682C309.704 31.682 311.456 30.1829 312.029 27.1849L318.294 29.206C317.722 31.463 316.442 33.2989 314.454 34.7137C312.5 36.1286 309.957 36.836 306.824 36.836C304.197 36.836 301.889 36.3138 299.902 35.2696C297.948 34.2253 296.432 32.7263 295.354 30.7724C294.276 28.8186 293.737 26.4606 293.737 23.6983C293.737 20.936 294.276 18.578 295.354 16.6242C296.466 14.6704 297.982 13.1713 299.902 12.1271C301.856 11.0828 304.096 10.5607 306.622 10.5607Z" fill="#1D1D1D"/>
<path d="M330.596 0V22.5867L341.51 11.066H349.393L339.893 20.9697L349.999 36.3307H342.167L335.194 25.1637L330.596 30.065V36.3307H323.673V0H330.596Z" fill="#1D1D1D"/>
</svg>
