<svg width="141" height="30" viewBox="0 0 141 30" fill="none" xmlns="http://www.w3.org/2000/svg">
  <path d="M25.8086 7.01859L13.8011 0.172059C13.3963 -0.0587766 12.8991 -0.0572265 12.4957 0.175999L0.654368 7.02253C0.249872 7.2564 0.00097044 7.68784 0.00132627 8.15449C0.00169827 8.62113 0.251247 9.05219 0.656098 9.28541L22.5232 21.8841L13.1564 27.188L3.93091 21.8909L7.64665 19.7458L13.2092 22.9522C13.2961 23.0022 13.4038 22.9991 13.4876 22.9439L15.4339 21.6624C15.5106 21.6119 15.5556 21.5254 15.5529 21.4337C15.5502 21.3421 15.5001 21.2584 15.4206 21.2125L0.397606 12.544C0.356588 12.5204 0.310784 12.5085 0.264995 12.5085C0.241656 12.5085 0.218317 12.5116 0.195608 12.5177C0.173822 12.5236 0.152618 12.5324 0.132546 12.544C0.0505276 12.5912 0 12.6786 0 12.7731V15.181C0 15.2755 0.0504629 15.3628 0.132384 15.41L5.03079 18.2365L0.655128 20.7625C0.25005 20.9963 0.000792526 21.4283 0.00132627 21.8954C0.00187618 22.3626 0.252137 22.7939 0.657764 23.0268L12.4992 29.826C12.9008 30.0566 13.3947 30.0581 13.7977 29.8298L25.8052 23.0307C26.2136 22.7994 26.4667 22.3675 26.4685 21.8988C26.4702 21.4301 26.2204 20.9963 25.8137 20.762L3.92605 8.15145L13.1564 2.81459L22.5413 8.16573L18.8453 10.3194L12.9546 6.90595C12.8678 6.85563 12.7599 6.85867 12.676 6.91376L10.726 8.19434C10.6871 8.21992 10.6563 8.25473 10.6358 8.29477C10.6158 8.33372 10.6055 8.37757 10.6068 8.42272C10.6093 8.51437 10.6592 8.59807 10.7386 8.64412L26.023 17.5031C26.1049 17.5506 26.2061 17.5507 26.2882 17.5035C26.3704 17.4563 26.421 17.3689 26.421 17.2743V14.8616C26.421 14.7673 26.3707 14.6801 26.289 14.6328L21.4495 11.8285L25.8193 9.28218C26.2232 9.04683 26.4707 8.61422 26.4685 8.14732C26.4663 7.68042 26.2147 7.25013 25.8086 7.01859Z" fill="black"/>
  <path d="M49.9463 17.8836C49.9463 15.2381 48.2715 13.8412 45.4944 13.3545C42.7384 12.8677 41.0212 13.0158 41.0212 11.1746C41.0212 9.86239 42.2932 9.31213 43.862 9.31213C45.5156 9.31213 46.7239 10.201 46.7875 11.6402H49.6919C49.7131 9.05816 47.5719 6.83594 43.8408 6.83594C40.4913 6.83594 38.0321 8.59255 38.0321 11.3227C38.0321 14.1375 40.0249 15.4497 42.7384 15.7672C45.1552 16.1693 46.9147 16.1904 46.9147 17.9259C46.9147 19.3227 45.7912 20.0423 43.9892 20.0423C42.166 20.0423 40.8093 19.3015 40.7033 17.3756H37.7141C37.8201 20.9735 40.5761 22.5396 43.9892 22.5396C47.4235 22.5396 49.9463 20.9312 49.9463 17.8836Z" fill="black"/>
  <path d="M66.1358 17.2275H63.0407C62.8711 18.9206 61.8747 19.9788 60.0727 19.9788C57.4016 19.9788 56.5324 17.4391 56.5324 14.709C56.5324 11.9153 57.3592 9.43911 60.0727 9.43911C61.8747 9.43911 62.8287 10.4761 63.0407 12.1269H66.0298C65.6058 9.07932 63.4859 6.83594 60.0727 6.83594C55.4724 6.83594 53.5009 10.4127 53.5009 14.709C53.5009 19.0899 55.4724 22.5396 60.0515 22.5396C63.5495 22.5396 65.8602 20.3386 66.1358 17.2275Z" fill="black"/>
  <path d="M74.0199 22.2222H76.9666V16.2539L82.1605 7.1534H79.0442L75.5251 13.4603L72.0271 7.1534H68.7836L74.0199 16.2539V22.2222Z" fill="black"/>
  <path d="M88.9577 22.2222H91.9044V9.7989H96.4199V7.1534H84.4422V9.7989H88.9577V22.2222Z" fill="black"/>
  <path d="M98.7057 22.2222H101.716L102.818 19.0264H108.457L109.539 22.2222H112.676L107.186 7.1534H104.196L98.7057 22.2222ZM103.645 16.5079L105.617 10.6455L107.61 16.5079H103.645Z" fill="black"/>
  <path d="M116.343 22.2222H126.37V19.5767H119.289V7.1534H116.343V22.2222Z" fill="black"/>
  <path d="M130.279 22.2222H140.857V19.6402H133.226V15.7248H140.094V13.1428H133.226V9.75657H140.794V7.1534H130.279V22.2222Z" fill="black"/>
</svg>
