<svg width="208" height="50" viewBox="0 0 208 50" fill="none" xmlns="http://www.w3.org/2000/svg">
  <path d="M11.002 10.2138H25.7763V49.3112H37.3677V10.2138H52.1183V0.665084H11.002V10.2138Z" fill="#1D1D1D"/>
  <path d="M101.554 24.9881C101.554 8.90736 91.3879 0 78.3238 0C65.2122 0 55.1172 8.90736 55.1172 24.9881C55.1172 40.9976 65.2122 49.9763 78.3238 49.9763C91.3879 49.9763 101.554 41.0689 101.554 24.9881ZM89.5352 24.9881C89.5352 34.5131 85.3547 39.6675 78.3238 39.6675C71.3167 39.6675 67.1124 34.5131 67.1124 24.9881C67.1124 15.4632 71.3167 10.3088 78.3238 10.3088C85.3547 10.3088 89.5352 15.4632 89.5352 24.9881Z" fill="#1D1D1D"/>
  <path d="M140.77 49.3112C155.592 49.3112 164.785 40.1663 164.785 24.9644C164.785 9.78622 155.592 0.665084 140.747 0.665084H122.789V49.3112H140.77ZM134.547 39.2874V10.6888H140.153C148.514 10.6888 153.003 14.4893 153.003 24.9644C153.003 35.4869 148.514 39.2874 140.319 39.2874H134.547Z" fill="#1D1D1D"/>
  <path d="M188.68 50C200.153 50 207.112 42.4228 207.112 31.1877C207.112 19.9287 200.153 12.3515 188.68 12.3515C177.207 12.3515 170.248 19.9287 170.248 31.1877C170.248 42.4228 177.207 50 188.68 50ZM188.751 41.2352C184.452 41.2352 182.077 37.1496 182.077 31.1164C182.077 25.0594 184.452 20.9501 188.751 20.9501C192.908 20.9501 195.283 25.0594 195.283 31.1164C195.283 37.1496 192.908 41.2352 188.751 41.2352Z" fill="#1D1D1D"/>
  <rect x="109.062" y="4.47363" width="8.335" height="114.535" transform="rotate(72.2168 109.062 4.47363)" fill="#EA4D4D"/>
</svg>